<svg width="16" height="16" viewBox="0 0 16 16" fill="none" xmlns="http://www.w3.org/2000/svg">
<g clip-path="url(#clip0_107_78)">
<path d="M10.6189 0.0468483C12.8814 0.334349 14.7439 1.77497 15.5721 3.87497C15.8752 4.63747 15.9814 5.22185 15.9814 6.10935C15.9814 6.99685 15.8752 7.58122 15.5721 8.34372C14.3502 11.4375 10.9189 12.975 7.78145 11.8375C7.40332 11.7 6.71582 11.3406 6.42207 11.1281L6.17207 10.9468L3.6877 13.4218C1.42207 15.6812 1.19082 15.9031 1.05019 15.95C0.743945 16.05 0.450195 15.9843 0.234571 15.7656C0.0158205 15.55 -0.0498047 15.2562 0.0501947 14.95C0.0970697 14.8093 0.318945 14.5781 2.58144 12.3125L5.05957 9.8281L4.98145 9.73435C4.9377 9.68122 4.8252 9.51247 4.72832 9.35935C3.60645 7.5656 3.48769 5.34997 4.40645 3.44372C4.72519 2.78122 5.07832 2.2906 5.60645 1.7656C6.5002 0.878098 7.60957 0.312473 8.8752 0.0905981C9.35645 0.00622368 10.1502 -0.0125256 10.6189 0.0468483ZM9.0627 1.6406C7.23769 1.99372 5.8377 3.3656 5.44707 5.18747C5.34395 5.65622 5.33144 6.4531 5.41582 6.8906C5.79082 8.8156 7.16895 10.2031 9.07832 10.5812C9.46895 10.6593 10.3127 10.6593 10.7033 10.5812C11.2814 10.4656 11.8127 10.2625 12.2752 9.97497C14.2721 8.73435 15.0002 6.1781 13.9502 4.08747C13.2721 2.73435 12.0064 1.82497 10.5002 1.60622C10.1314 1.5531 9.43145 1.57185 9.0627 1.6406Z" fill="white"/>
</g>
<defs>
<clipPath id="clip0_107_78">
<rect width="16" height="16" fill="white" transform="matrix(-1 0 0 1 16 0)"/>
</clipPath>
</defs>
</svg>
