<svg width="97" height="94" viewBox="0 0 97 94" fill="none" xmlns="http://www.w3.org/2000/svg">
<path d="M83.2999 3.61233C82.7695 3.8408 82.1442 4.69758 81.2348 6.41113C80.5529 7.70581 80.477 7.78196 78.7909 8.71488C76.8774 9.76205 76.2144 10.5046 76.2144 11.6089C76.2144 12.7322 76.7259 13.3034 78.6773 14.3886L80.477 15.3977L81.5379 17.2636C82.3148 18.6345 82.7504 19.2056 83.2242 19.4721C84.7776 20.2908 85.7628 19.7386 87.1837 17.2636L88.2446 15.3977L90.0254 14.4077C91.9389 13.3415 92.5072 12.6751 92.5072 11.5137C92.5072 10.5046 91.8064 9.74301 89.9118 8.69585L88.1689 7.72483L87.2595 6.04937C86.7669 5.11645 86.1607 4.18352 85.9332 3.97409C85.4597 3.53617 83.9629 3.32675 83.2999 3.61233ZM85.2134 8.23891C85.9901 9.62877 86.4447 10.0667 88.453 11.171L89.1919 11.5898L88.5666 11.9325C86.1607 13.2653 86.028 13.3986 85.2322 14.9027C84.7966 15.7214 84.4176 16.3877 84.3608 16.3877C84.304 16.3877 83.9061 15.7023 83.4514 14.8646C82.6747 13.4176 82.58 13.3034 81.2348 12.5608C80.4581 12.142 79.776 11.7041 79.7192 11.6089C79.6624 11.5327 80.0602 11.2281 80.6097 10.9425C82.22 10.1428 82.7884 9.60974 83.5273 8.20082C83.9061 7.45829 84.266 6.86807 84.3419 6.86807C84.3987 6.86807 84.7966 7.49636 85.2134 8.23891Z" fill="white"/>
<path d="M11.9924 23.5082C11.6135 23.7557 11.1019 24.4602 10.4768 25.6025L9.56738 27.3161L7.8623 28.2489C5.87303 29.3532 5.39941 29.8864 5.39941 31.0477C5.39941 32.2283 5.91093 32.7994 7.88125 33.8846L9.58632 34.8176L10.4199 36.436C11.4998 38.4732 12.0303 38.9491 13.2807 38.9491C14.4742 38.9491 15.0426 38.435 16.1604 36.3787C16.975 34.8937 17.0318 34.8366 18.6801 33.9037C20.4989 32.8565 21.2187 32.0568 21.2187 31.0477C21.2187 30.0577 20.5177 29.2772 18.6611 28.211C16.9939 27.259 16.956 27.2019 16.1035 25.6787C15.6299 24.8219 15.0615 23.927 14.8342 23.6986C14.2469 23.1083 12.7881 22.9941 11.9924 23.5082ZM14.0764 27.9063C14.8342 29.2962 15.1941 29.6389 16.8234 30.4576C17.3917 30.7431 17.7896 31.0287 17.7328 31.0858C17.676 31.1621 17.0129 31.5619 16.274 31.9807C15.0236 32.6852 14.8342 32.8946 14.1521 34.1321C13.7164 34.8937 13.3375 35.5221 13.2807 35.5221C13.2049 35.5221 12.8449 34.9318 12.4471 34.1892C11.6893 32.7994 11.3293 32.4566 9.68105 31.619L8.63906 31.105L9.77578 30.4765C11.443 29.5437 11.784 29.2199 12.5039 27.8301C12.8639 27.1448 13.2049 26.5735 13.2617 26.5735C13.3185 26.5735 13.6975 27.1637 14.0764 27.9063Z" fill="white"/>
<path d="M51.861 48.9883C51.3874 49.2166 50.8948 49.9021 49.7012 51.9583C49.1897 52.8532 48.9054 53.1008 47.5036 53.8813C45.1922 55.1569 44.6048 56.2231 45.3249 57.7654C45.5901 58.3366 46.651 59.0792 48.5834 60.0501C49.0192 60.2785 49.436 60.8307 50.1749 62.1825C51.2926 64.2008 51.7094 64.5433 53.0546 64.5433C54.2101 64.5433 54.7027 64.0864 55.7637 62.0873L56.673 60.4308L58.3023 59.5361C59.1928 59.06 60.0833 58.4889 60.2726 58.2795C60.7843 57.7083 60.9358 56.7182 60.6516 55.8614C60.3673 55.0046 60.0265 54.7381 58.1507 53.7481C56.7867 53.0437 56.7489 52.9866 55.7257 51.1588C54.608 49.1977 54.0965 48.7407 52.9598 48.7407C52.6188 48.7407 52.1262 48.8549 51.861 48.9883ZM53.8502 53.691C54.3807 54.7381 54.8354 55.1569 56.3699 56.0137L57.5635 56.6801L56.0858 57.5179C54.7027 58.2984 54.5512 58.4507 53.7745 59.8407L52.9408 61.3258L52.3345 60.2214C51.3874 58.4318 51.2926 58.3366 49.8148 57.4798L48.3939 56.6801L49.0949 56.2804C51.122 55.1379 51.3874 54.9096 52.1452 53.5196C52.9787 51.9775 52.9598 51.9775 53.8502 53.691Z" fill="white"/>
<path d="M19.0129 52.6981C18.5014 53.1932 18.4255 53.7264 18.7286 54.3165C18.8423 54.507 22.6124 57.4772 27.1214 60.9042C31.6114 64.3122 35.4384 67.2443 35.59 67.3966C36.0067 67.7965 34.9458 67.3014 27.8224 63.7982C16.6257 58.2767 12.7419 56.411 12.4388 56.411C12.2872 56.411 11.9273 56.5823 11.6431 56.8106C11.0937 57.2486 10.9611 58.2006 11.3779 58.7528C11.5105 58.9241 16.4742 61.4182 22.4229 64.3313C28.3718 67.2253 33.2597 69.6432 33.3166 69.6813C33.3734 69.7384 33.2407 69.7384 33.0323 69.6813C12.6283 63.9505 8.47922 62.8653 7.85404 63.0747C7.51301 63.1889 7.05833 63.4554 6.88781 63.6458C6.69837 63.8553 6.18685 65.2452 5.7511 66.7492L4.97435 69.4528L4.02708 69.5671C2.7388 69.7384 1.79154 70.2143 1.03372 71.0903C-0.614521 73.0323 -0.254561 75.831 1.84837 77.3352C2.37884 77.7159 6.28156 78.8773 7.03938 78.8773C7.53196 78.8773 8.30873 78.0205 8.30873 77.4875C8.30873 76.5736 7.74036 76.1927 5.5427 75.6216C3.36399 75.0505 2.81458 74.6888 2.81458 73.7938C2.81458 73.2606 3.59134 72.404 4.08391 72.404C4.89857 72.423 44.3617 82.6852 44.6837 82.9708C44.8732 83.1421 45.1196 83.7704 45.2332 84.3988C45.4984 85.7315 45.991 86.417 47.0329 86.8929C48.0181 87.3498 48.9275 87.3498 49.9126 86.8929C50.9546 86.417 51.4472 85.7315 51.7124 84.3988C51.8261 83.7704 52.0724 83.1421 52.2619 82.9708C52.4514 82.7994 56.1646 81.7523 60.6167 80.6099C65.0311 79.4676 74.0301 77.1637 80.6041 75.4693C87.1781 73.7938 92.71 72.404 92.8806 72.404C93.3542 72.404 94.1311 73.2798 94.1311 73.7938C94.1311 74.9553 94.7373 74.7648 74.2764 80.0198C63.7048 82.7423 54.9521 85.0462 54.8005 85.1793C54.6489 85.2935 54.3079 85.9028 54.0427 86.512C53.4553 87.8068 52.2619 89.0063 50.9735 89.5965C49.7232 90.1676 47.2224 90.1676 45.991 89.5965C44.6837 89.0063 43.5849 87.902 42.865 86.4549C42.486 85.6934 42.0313 85.0651 41.7852 84.9699C41.5577 84.8747 38.6781 84.1131 35.4005 83.2755C32.1229 82.4377 25.9089 80.8574 21.6083 79.7531C17.3077 78.6298 13.5755 77.735 13.3292 77.735C12.2494 77.735 11.662 79.3724 12.4577 80.0958C12.6851 80.3053 17.8192 81.7142 26.4394 83.9418C33.9228 85.8648 40.061 87.4451 40.0801 87.4451C40.0801 87.4451 40.3452 87.902 40.6673 88.4542C42.3914 91.5194 46.2562 93.3853 49.7989 92.8332C52.4323 92.4144 55.0279 90.6627 56.2782 88.4542C56.7329 87.6355 56.9792 87.4069 57.5286 87.2736C57.9265 87.1594 62.2839 86.0551 67.2286 84.7795C90.285 78.8773 94.0741 77.8682 94.6614 77.6017C95.9119 77.0114 96.9728 75.2789 96.9728 73.832C96.9728 72.3468 95.9119 70.6523 94.5857 70.0241C94.1879 69.8337 93.4489 69.6432 92.9186 69.5671L91.9713 69.4528L91.1944 66.7492C89.9819 62.5986 89.7926 62.4844 85.6624 63.6458C84.1279 64.0838 82.7069 64.5597 82.5364 64.731C82.0817 65.15 82.1006 66.2162 82.5744 66.6921C83.0859 67.2062 83.6353 67.1681 85.9844 66.5208C87.0644 66.1971 87.9738 65.9687 87.9927 65.9877C88.1254 66.121 89.2052 70.1764 89.1484 70.2335C89.1104 70.2906 88.3147 70.519 87.3864 70.7665C83.9194 71.6995 52.7166 79.696 52.2619 79.7722C51.8261 79.8483 51.7313 79.7151 51.0873 78.1347C50.4811 76.6307 50.4431 76.4022 50.7083 76.3261C50.8789 76.269 56.7897 74.6315 63.8186 72.6895C70.8472 70.7475 76.9475 69.034 77.3833 68.8627C78.1222 68.5962 78.5958 68.0059 78.5958 67.3776C78.5958 66.8634 77.8191 66.121 77.2697 66.121C76.9854 66.121 73.8217 66.9397 70.241 67.9296C66.6792 68.9198 63.7427 69.7195 63.7048 69.6813C63.6859 69.6624 68.5548 67.2443 74.5416 64.3122C80.5472 61.3992 85.5298 58.848 85.6245 58.6766C85.9656 58.0292 85.814 57.2105 85.3025 56.8106C85.0182 56.5823 84.6583 56.411 84.4879 56.411C84.3173 56.411 79.3725 58.7718 73.4806 61.6657C61.886 67.3585 60.9198 67.8154 61.3556 67.3966C61.5072 67.2443 65.3342 64.3313 69.8241 60.9042C74.3332 57.4772 78.1032 54.5259 78.217 54.3165C78.5201 53.7264 78.4443 53.1932 77.9327 52.6981C77.0045 51.7463 79.1452 50.2232 51.4661 71.2997L48.4728 73.5653L41.8041 68.4818C31.8766 60.9423 28.2014 58.1435 24.0901 55.021C21.6842 53.2124 20.2254 52.2222 19.9222 52.2222C19.6759 52.2222 19.2592 52.4316 19.0129 52.6981ZM14.2765 67.4347C16.8909 68.1582 25.0754 70.4429 32.464 72.4991C39.8717 74.5554 46.0478 76.269 46.2373 76.3261C46.5025 76.4022 46.4646 76.6307 45.8583 78.1157C45.4604 79.0486 45.0816 79.8293 44.9869 79.8293C44.6458 79.8293 7.94875 70.3858 7.81614 70.2525C7.75931 70.2143 7.98665 69.2054 8.32766 68.044C8.82025 66.3494 8.99076 65.9495 9.23703 66.0258C9.40755 66.0639 11.681 66.7111 14.2765 67.4347ZM49.0791 80.667C49.4958 81.7142 49.5149 81.9236 49.3063 82.3235C49.1738 82.571 49.0602 83.0088 49.0411 83.2944C49.0411 84.037 48.8516 84.3988 48.4728 84.3988C48.0938 84.3988 47.9045 84.037 47.9045 83.2944C47.8854 83.0088 47.7718 82.571 47.6391 82.3235C47.4308 81.9236 47.4498 81.7142 47.8666 80.667C48.1317 80.0006 48.3969 79.4485 48.4728 79.4485C48.5485 79.4485 48.8139 80.0006 49.0791 80.667Z" fill="white"/>
<path d="M49.3661 43.5185C61.3241 43.5185 71.0179 33.7766 71.0179 21.7593C71.0179 9.74195 61.3241 0 49.3661 0C37.4082 0 27.7144 9.74195 27.7144 21.7593C27.7144 33.7766 37.4082 43.5185 49.3661 43.5185Z" fill="white"/>
<path d="M58.8806 34.8148L54.9194 29.5604H54.2303V34.8148H51.1855V22.1549H54.2303V27.0692H54.7163L58.6161 22.1549H62.4237L57.5704 28.1325L62.6757 34.8148H58.8806Z" fill="#32414D"/>
<path d="M43.2912 34.8148L39.33 29.5604H38.641V34.8148H35.5962V22.1549H38.641V27.0692H39.127L43.0267 22.1549H46.8343L41.981 28.1325L47.0864 34.8148H43.2912Z" fill="#32414D"/>
<path d="M44.2568 17.4074V4.74747H52.8623V7.23248H47.3016V9.21059H48.9624C49.9876 9.21059 50.8795 9.37749 51.6382 9.71131C52.4009 10.0451 52.9894 10.5149 53.4036 11.1207C53.8217 11.7265 54.031 12.4395 54.031 13.2596C54.031 14.0796 53.8217 14.8008 53.4036 15.4231C52.9894 16.0454 52.4009 16.5317 51.6382 16.882C50.8795 17.2323 49.9876 17.4074 48.9624 17.4074H44.2568ZM47.3016 14.9842H48.9624C49.4053 14.9842 49.7786 14.908 50.082 14.7555C50.3895 14.5989 50.6212 14.3887 50.777 14.125C50.937 13.8571 51.0169 13.5604 51.0169 13.2348C51.0169 12.765 50.8405 12.3735 50.4879 12.0603C50.1352 11.743 49.6268 11.5843 48.9624 11.5843H47.3016V14.9842Z" fill="#32414D"/>
</svg>
