<svg width="250" height="77" viewBox="0 0 250 77" fill="none" xmlns="http://www.w3.org/2000/svg">
<g clip-path="url(#clip0_13_19)">
<path d="M73.9493 2.1136C73.6376 2.24728 73.2702 2.74858 72.7358 3.75119C72.3351 4.50872 72.2905 4.55328 71.2997 5.09913C70.1753 5.71184 69.7856 6.1463 69.7856 6.79242C69.7856 7.44969 70.0862 7.78388 71.2329 8.41887L72.2905 9.00929L72.9139 10.101C73.3704 10.9031 73.6264 11.2373 73.9048 11.3932C74.8176 11.8723 75.3966 11.5492 76.2315 10.101L76.855 9.00929L77.9014 8.43001C79.0259 7.80617 79.3598 7.41626 79.3598 6.73672C79.3598 6.1463 78.948 5.7007 77.8347 5.088L76.8105 4.51985L76.2761 3.53952C75.9866 2.99367 75.6304 2.4478 75.4967 2.32527C75.2185 2.06904 74.3389 1.9465 73.9493 2.1136ZM75.0737 4.82064C75.5301 5.63385 75.7973 5.89008 76.9774 6.5362L77.4116 6.78128L77.0442 6.9818C75.6304 7.76161 75.5524 7.83959 75.0848 8.71965C74.8288 9.19867 74.6061 9.58858 74.5727 9.58858C74.5393 9.58858 74.3055 9.18753 74.0384 8.69737C73.5819 7.85073 73.5263 7.78388 72.7358 7.34942C72.2794 7.10434 71.8786 6.84812 71.8452 6.79242C71.8118 6.74786 72.0456 6.56962 72.3685 6.40252C73.3148 5.93464 73.6487 5.62272 74.0829 4.79835C74.3055 4.36389 74.5171 4.01855 74.5616 4.01855C74.595 4.01855 74.8288 4.38617 75.0737 4.82064Z" fill="white"/>
<path d="M32.0471 13.7548C31.8244 13.8996 31.5238 14.3118 31.1564 14.9802L30.6221 15.9828L29.6201 16.5286C28.4512 17.1748 28.1729 17.4867 28.1729 18.1662C28.1729 18.857 28.4734 19.1911 29.6312 19.8261L30.6332 20.372L31.123 21.3189C31.7576 22.5109 32.0693 22.7894 32.8041 22.7894C33.5055 22.7894 33.8394 22.4886 34.4963 21.2854C34.975 20.4165 35.0084 20.3831 35.977 19.8373C37.0457 19.2245 37.4687 18.7566 37.4687 18.1662C37.4687 17.587 37.0568 17.1303 35.9658 16.5064C34.9861 15.9494 34.9639 15.916 34.4629 15.0248C34.1846 14.5235 33.8506 13.9998 33.717 13.8662C33.3719 13.5208 32.5146 13.454 32.0471 13.7548ZM33.2717 16.3282C33.717 17.1414 33.9285 17.3419 34.8859 17.8209C35.2199 17.988 35.4537 18.1551 35.4203 18.1885C35.3869 18.2331 34.9973 18.4671 34.5631 18.7121C33.8283 19.1243 33.717 19.2468 33.3162 19.9709C33.0602 20.4165 32.8375 20.7842 32.8041 20.7842C32.7596 20.7842 32.548 20.4388 32.3143 20.0043C31.8689 19.1911 31.6574 18.9906 30.6889 18.5005L30.0766 18.1997L30.7445 17.832C31.7242 17.2862 31.9246 17.0968 32.3477 16.2836C32.5592 15.8826 32.7596 15.5483 32.793 15.5483C32.8264 15.5483 33.049 15.8937 33.2717 16.3282Z" fill="white"/>
<path d="M55.4751 28.6634C55.1968 28.797 54.9073 29.1981 54.2059 30.4011C53.9054 30.9248 53.7383 31.0696 52.9146 31.5263C51.5564 32.2727 51.2112 32.8965 51.6343 33.7989C51.7902 34.1331 52.4136 34.5676 53.5491 35.1357C53.8052 35.2694 54.0501 35.5924 54.4843 36.3834C55.1411 37.5643 55.386 37.7647 56.1765 37.7647C56.8555 37.7647 57.145 37.4974 57.7684 36.3277L58.3028 35.3585L59.2602 34.835C59.7835 34.5564 60.3068 34.2222 60.418 34.0997C60.7187 33.7655 60.8078 33.1862 60.6407 32.6849C60.4737 32.1836 60.2734 32.0276 59.1712 31.4484C58.3696 31.0362 58.3474 31.0028 57.7462 29.9333C57.0893 28.7859 56.7888 28.5185 56.1208 28.5185C55.9204 28.5185 55.6309 28.5853 55.4751 28.6634ZM56.644 31.415C56.9558 32.0276 57.223 32.2727 58.1247 32.774L58.8261 33.1639L57.9578 33.6541C57.145 34.1108 57.0559 34.1999 56.5995 35.0132L56.1096 35.8821L55.7534 35.2359C55.1968 34.1888 55.1412 34.1331 54.2727 33.6318L53.4378 33.1639L53.8497 32.93C55.0409 32.2616 55.1968 32.1279 55.6421 31.3147C56.1319 30.4124 56.1208 30.4123 56.644 31.415Z" fill="white"/>
<path d="M36.1725 30.834C35.8719 31.1237 35.8274 31.4357 36.0055 31.7809C36.0723 31.8924 38.2877 33.6303 40.9373 35.6354C43.5758 37.6295 45.8246 39.3451 45.9137 39.4342C46.1586 39.6681 45.5352 39.3785 41.3492 37.3287C34.7698 34.0981 32.4875 33.0064 32.3094 33.0064C32.2203 33.0064 32.0088 33.1066 31.8418 33.2403C31.519 33.4965 31.441 34.0536 31.686 34.3766C31.7639 34.4769 34.6807 35.9362 38.1764 37.6407C41.6721 39.334 44.5444 40.7487 44.5778 40.771C44.6112 40.8044 44.5332 40.8044 44.4107 40.771C32.4207 37.4178 29.9826 36.7829 29.6153 36.9054C29.4149 36.9722 29.1477 37.1282 29.0475 37.2396C28.9362 37.3621 28.6356 38.1754 28.3795 39.0554L27.9231 40.6373L27.3664 40.7042C26.6094 40.8044 26.0528 41.0829 25.6074 41.5954C24.6389 42.7316 24.8504 44.3692 26.0862 45.2493C26.3979 45.4721 28.6912 46.1516 29.1365 46.1516C29.426 46.1516 29.8824 45.6503 29.8824 45.3384C29.8824 44.8037 29.5485 44.5809 28.2571 44.2467C26.9768 43.9125 26.6539 43.7009 26.6539 43.1772C26.6539 42.8653 27.1104 42.3641 27.3998 42.3641C27.8785 42.3752 51.0682 48.3796 51.2575 48.5468C51.3688 48.647 51.5136 49.0146 51.5803 49.3823C51.7362 50.162 52.0256 50.5631 52.6379 50.8416C53.2168 51.109 53.7512 51.109 54.3301 50.8416C54.9424 50.5631 55.2319 50.162 55.3877 49.3823C55.4545 49.0146 55.5992 48.647 55.7106 48.5468C55.8219 48.4464 58.0039 47.8338 60.6201 47.1654C63.2141 46.497 68.5022 45.149 72.3653 44.1576C76.2283 43.1772 79.4791 42.3641 79.5793 42.3641C79.8576 42.3641 80.3141 42.8765 80.3141 43.1772C80.3141 43.8568 80.6704 43.7454 68.6469 46.8201C62.4347 48.413 57.2914 49.761 57.2024 49.839C57.1133 49.9058 56.9129 50.2623 56.757 50.6187C56.4119 51.3763 55.7106 52.0782 54.9535 52.4235C54.2188 52.7576 52.7492 52.7576 52.0256 52.4235C51.2575 52.0782 50.6117 51.432 50.1887 50.5853C49.966 50.1397 49.6988 49.7722 49.5542 49.7164C49.4205 49.6607 47.7283 49.2151 45.8024 48.725C43.8764 48.2348 40.2248 47.3102 37.6977 46.664C35.1705 46.0068 32.9774 45.4833 32.8326 45.4833C32.1981 45.4833 31.8529 46.4413 32.3205 46.8646C32.4541 46.9871 35.4711 47.8115 40.5366 49.1149C44.934 50.2401 48.541 51.1647 48.5522 51.1647C48.5522 51.1647 48.708 51.432 48.8973 51.7551C49.9104 53.5486 52.1815 54.6404 54.2633 54.3173C55.8107 54.0722 57.336 53.0473 58.0707 51.7551C58.3379 51.2761 58.4826 51.1424 58.8055 51.0643C59.0393 50.9975 61.5998 50.3514 64.5055 49.605C78.0541 46.1516 80.2806 45.5612 80.6258 45.4053C81.3606 45.0599 81.984 44.0461 81.984 43.1995C81.984 42.3305 81.3606 41.3391 80.5813 40.9715C80.3475 40.8601 79.9133 40.7487 79.6016 40.7042L79.045 40.6373L78.5885 39.0554C77.8759 36.6268 77.7647 36.56 75.3377 37.2396C74.436 37.4958 73.6009 37.7743 73.5008 37.8745C73.2336 38.1197 73.2447 38.7435 73.5231 39.022C73.8237 39.3228 74.1465 39.3005 75.5269 38.9218C76.1616 38.7323 76.6959 38.5987 76.707 38.6098C76.785 38.6878 77.4195 41.0607 77.3862 41.0941C77.3639 41.1275 76.8963 41.2611 76.3508 41.4059C74.3135 41.9519 55.9778 46.6306 55.7106 46.6752C55.4545 46.7198 55.3988 46.6418 55.0204 45.7171C54.6641 44.8371 54.6418 44.7034 54.7977 44.6589C54.8979 44.6255 58.3713 43.6674 62.5016 42.5311C66.6319 41.3948 70.2166 40.3922 70.4727 40.292C70.9069 40.136 71.1852 39.7907 71.1852 39.4231C71.1852 39.1222 70.7288 38.6878 70.4059 38.6878C70.2389 38.6878 68.3797 39.1668 66.2756 39.7461C64.1826 40.3254 62.457 40.7933 62.4348 40.771C62.4237 40.7599 65.2848 39.3451 68.8028 37.6295C72.3319 35.9251 75.2598 34.4323 75.3154 34.332C75.5158 33.9532 75.4268 33.4742 75.1262 33.2403C74.9592 33.1066 74.7477 33.0064 74.6475 33.0064C74.5473 33.0064 71.6416 34.3877 68.1793 36.081C61.366 39.4119 60.7982 39.6792 61.0543 39.4342C61.1434 39.3451 63.3923 37.6407 66.0306 35.6354C68.6803 33.6303 70.8957 31.9035 70.9626 31.7809C71.1407 31.4357 71.0961 31.1237 70.7955 30.834C70.2501 30.2771 71.508 29.3859 55.243 41.7179L53.484 43.0435L49.5653 40.0691C43.7316 35.6577 41.5719 34.0201 39.1561 32.1931C37.7422 31.1349 36.885 30.5556 36.7069 30.5556C36.5621 30.5556 36.3172 30.6781 36.1725 30.834ZM33.3893 39.4565C34.9256 39.8798 39.735 41.2166 44.0768 42.4197C48.4297 43.6228 52.059 44.6255 52.1704 44.6589C52.3262 44.7034 52.3039 44.8371 51.9477 45.706C51.7139 46.2518 51.4913 46.7087 51.4356 46.7087C51.2352 46.7087 29.6709 41.1832 29.593 41.1052C29.5596 41.0829 29.6932 40.4925 29.8936 39.813C30.183 38.8214 30.2832 38.5875 30.4279 38.6321C30.5281 38.6544 31.8641 39.0331 33.3893 39.4565ZM53.8403 47.1988C54.0852 47.8115 54.0964 47.934 53.9738 48.168C53.8959 48.3128 53.8292 48.569 53.818 48.7361C53.818 49.1706 53.7066 49.3823 53.484 49.3823C53.2613 49.3823 53.1501 49.1706 53.1501 48.7361C53.1389 48.569 53.0721 48.3128 52.9941 48.168C52.8717 47.934 52.8829 47.8115 53.1278 47.1988C53.2836 46.8089 53.4394 46.4858 53.484 46.4858C53.5285 46.4858 53.6844 46.8089 53.8403 47.1988Z" fill="white"/>
<path d="M54.0089 25.463C61.0357 25.463 66.7321 19.7629 66.7321 12.7315C66.7321 5.70008 61.0357 0 54.0089 0C46.982 0 41.2856 5.70008 41.2856 12.7315C41.2856 19.7629 46.982 25.463 54.0089 25.463Z" fill="white"/>
<path d="M59.6 20.3704L57.2722 17.296H56.8673V20.3704H55.0781V12.963H56.8673V15.8384H57.1529L59.4445 12.963H61.682L58.83 16.4605L61.8301 20.3704H59.6Z" fill="#32414D"/>
<path d="M50.4393 20.3704L48.1116 17.296H47.7067V20.3704H45.9175V12.963H47.7067V15.8384H47.9923L50.2839 12.963H52.5213L49.6694 16.4605L52.6694 20.3704H50.4393Z" fill="#32414D"/>
<path d="M51.0066 10.1852V2.77777H56.0634V4.23177H52.7958V5.38918H53.7717C54.3742 5.38918 54.8983 5.48683 55.3441 5.68215C55.7923 5.87746 56.1381 6.15234 56.3815 6.5068C56.6272 6.86126 56.7502 7.2784 56.7502 7.75825C56.7502 8.23808 56.6272 8.66006 56.3815 9.02417C56.1381 9.38827 55.7923 9.67279 55.3441 9.87775C54.8983 10.0827 54.3742 10.1852 53.7717 10.1852H51.0066ZM52.7958 8.76736H53.7717C54.032 8.76736 54.2513 8.72275 54.4296 8.63353C54.6103 8.54191 54.7465 8.41893 54.838 8.26462C54.9321 8.10788 54.979 7.93427 54.979 7.74378C54.979 7.4689 54.8754 7.23982 54.6681 7.05657C54.4609 6.87091 54.1622 6.77807 53.7717 6.77807H52.7958V8.76736Z" fill="#32414D"/>
</g>
<path d="M113.728 5.04332H111.065C111.029 4.76989 110.956 4.52308 110.846 4.30291C110.736 4.08274 110.591 3.89453 110.409 3.73828C110.228 3.58203 110.013 3.46307 109.765 3.38139C109.52 3.29616 109.248 3.25355 108.95 3.25355C108.421 3.25355 107.964 3.38317 107.581 3.6424C107.201 3.90163 106.908 4.27628 106.702 4.76633C106.5 5.25639 106.398 5.84943 106.398 6.54545C106.398 7.26989 106.501 7.87713 106.707 8.36719C106.917 8.85369 107.21 9.22124 107.586 9.46982C107.966 9.71484 108.415 9.83736 108.934 9.83736C109.225 9.83736 109.49 9.80007 109.728 9.7255C109.969 9.65092 110.18 9.54261 110.362 9.40057C110.546 9.25497 110.697 9.07919 110.814 8.87322C110.935 8.66371 111.018 8.42756 111.065 8.16477L113.728 8.18075C113.682 8.66371 113.542 9.13956 113.307 9.60831C113.076 10.0771 112.759 10.505 112.354 10.892C111.949 11.2756 111.455 11.581 110.873 11.8082C110.294 12.0355 109.63 12.1491 108.881 12.1491C107.893 12.1491 107.009 11.9325 106.228 11.4993C105.45 11.0625 104.836 10.4268 104.385 9.59233C103.934 8.75781 103.708 7.74219 103.708 6.54545C103.708 5.34517 103.938 4.32777 104.396 3.49325C104.854 2.65874 105.473 2.02486 106.255 1.59162C107.036 1.15838 107.911 0.941761 108.881 0.941761C109.541 0.941761 110.152 1.03409 110.713 1.21875C111.274 1.39986 111.768 1.66619 112.194 2.01776C112.62 2.36577 112.966 2.79368 113.233 3.30149C113.499 3.8093 113.664 4.38991 113.728 5.04332ZM116.021 5.81037V3.81818H123.692V5.81037H121.076V12H118.605V5.81037H116.021ZM127.726 15.0682C127.413 15.0682 127.118 15.0433 126.841 14.9936C126.564 14.9474 126.326 14.8853 126.128 14.8072L126.703 12.9162C126.959 13.0014 127.189 13.0511 127.395 13.0653C127.605 13.0795 127.784 13.0458 127.933 12.9641C128.086 12.886 128.203 12.7457 128.285 12.5433L128.386 12.2983L125.478 3.81818H128.205L129.712 9.65625H129.798L131.326 3.81818H134.07L130.985 12.783C130.836 13.2305 130.625 13.6246 130.352 13.9656C130.082 14.31 129.732 14.5799 129.302 14.7752C128.876 14.9705 128.351 15.0682 127.726 15.0682ZM135.045 14.413V9.99183H135.657C135.842 9.8995 135.989 9.72195 136.099 9.45916C136.209 9.19283 136.296 8.8821 136.36 8.52699C136.428 8.16832 136.477 7.79545 136.509 7.40838C136.545 7.01776 136.577 6.65021 136.605 6.30575L136.797 3.81818H143.424V9.99183H144.702V14.413H142.23V12H137.58V14.413H135.045ZM138.193 9.99183H140.995V5.7571H138.97L138.928 6.30575C138.878 7.18643 138.8 7.92507 138.693 8.52166C138.587 9.11825 138.42 9.60831 138.193 9.99183ZM150.932 12.1545C150.076 12.1545 149.337 11.9858 148.716 11.6484C148.098 11.3075 147.622 10.8228 147.288 10.1942C146.958 9.56214 146.793 8.81108 146.793 7.94105C146.793 7.09588 146.96 6.35724 147.294 5.72514C147.627 5.08949 148.098 4.59588 148.705 4.24432C149.312 3.8892 150.028 3.71165 150.852 3.71165C151.434 3.71165 151.967 3.8022 152.45 3.98331C152.933 4.16442 153.35 4.43253 153.702 4.78764C154.053 5.14276 154.327 5.58132 154.522 6.10334C154.717 6.6218 154.815 7.21662 154.815 7.88778V8.53764H147.704V7.02486H152.391C152.388 6.74787 152.322 6.50107 152.194 6.28445C152.066 6.06783 151.89 5.89915 151.667 5.77841C151.447 5.65412 151.193 5.59197 150.905 5.59197C150.614 5.59197 150.353 5.65767 150.122 5.78906C149.891 5.9169 149.708 6.09268 149.573 6.31641C149.438 6.53658 149.367 6.78693 149.36 7.06747V8.60689C149.36 8.9407 149.426 9.23366 149.557 9.4858C149.689 9.73437 149.875 9.92791 150.117 10.0664C150.358 10.2049 150.646 10.2741 150.98 10.2741C151.21 10.2741 151.42 10.2422 151.608 10.1783C151.796 10.1143 151.958 10.0202 152.093 9.89595C152.228 9.77166 152.329 9.61896 152.397 9.43785L154.788 9.5071C154.689 10.0433 154.47 10.5103 154.133 10.908C153.799 11.3022 153.361 11.6094 152.817 11.8295C152.274 12.0462 151.645 12.1545 150.932 12.1545ZM163.114 6.89169V8.87855H158.917V6.89169H163.114ZM159.811 3.81818V12H157.345V3.81818H159.811ZM164.685 3.81818V12H162.235V3.81818H164.685ZM174.833 3.81818V12H172.383V3.81818H174.833ZM173.592 7.30717V9.29936C173.453 9.37038 173.258 9.43963 173.006 9.5071C172.757 9.57102 172.494 9.62429 172.217 9.6669C171.944 9.70952 171.701 9.73082 171.488 9.73082C170.231 9.73082 169.245 9.49112 168.531 9.01172C167.821 8.52876 167.466 7.74396 167.466 6.65732V3.81285H169.9V6.65732C169.9 6.93786 169.945 7.15625 170.034 7.3125C170.126 7.46875 170.286 7.57884 170.513 7.64276C170.744 7.70668 171.069 7.73864 171.488 7.73864C171.807 7.73864 172.134 7.70312 172.468 7.6321C172.805 7.55753 173.18 7.44922 173.592 7.30717ZM181.441 12.1545C180.585 12.1545 179.846 11.9858 179.225 11.6484C178.607 11.3075 178.131 10.8228 177.797 10.1942C177.467 9.56214 177.302 8.81108 177.302 7.94105C177.302 7.09588 177.469 6.35724 177.803 5.72514C178.137 5.08949 178.607 4.59588 179.214 4.24432C179.822 3.8892 180.537 3.71165 181.361 3.71165C181.943 3.71165 182.476 3.8022 182.959 3.98331C183.442 4.16442 183.859 4.43253 184.211 4.78764C184.562 5.14276 184.836 5.58132 185.031 6.10334C185.226 6.6218 185.324 7.21662 185.324 7.88778V8.53764H178.213V7.02486H182.9C182.897 6.74787 182.831 6.50107 182.703 6.28445C182.575 6.06783 182.4 5.89915 182.176 5.77841C181.956 5.65412 181.702 5.59197 181.414 5.59197C181.123 5.59197 180.862 5.65767 180.631 5.78906C180.4 5.9169 180.217 6.09268 180.083 6.31641C179.948 6.53658 179.877 6.78693 179.869 7.06747V8.60689C179.869 8.9407 179.935 9.23366 180.067 9.4858C180.198 9.73437 180.384 9.92791 180.626 10.0664C180.867 10.2049 181.155 10.2741 181.489 10.2741C181.72 10.2741 181.929 10.2422 182.117 10.1783C182.306 10.1143 182.467 10.0202 182.602 9.89595C182.737 9.77166 182.838 9.61896 182.906 9.43785L185.297 9.5071C185.198 10.0433 184.98 10.5103 184.642 10.908C184.308 11.3022 183.87 11.6094 183.326 11.8295C182.783 12.0462 182.155 12.1545 181.441 12.1545ZM191.674 12.1545C190.811 12.1545 190.07 11.9769 189.452 11.6218C188.838 11.2667 188.366 10.7731 188.035 10.141C187.705 9.50533 187.54 8.77024 187.54 7.93572C187.54 7.09766 187.705 6.36257 188.035 5.73047C188.369 5.09482 188.843 4.59943 189.458 4.24432C190.076 3.8892 190.812 3.71165 191.668 3.71165C192.425 3.71165 193.083 3.84837 193.644 4.1218C194.209 4.39524 194.649 4.78232 194.965 5.28303C195.285 5.78018 195.454 6.36435 195.472 7.03551H193.037C192.988 6.61648 192.845 6.288 192.611 6.05007C192.38 5.81214 192.078 5.69318 191.706 5.69318C191.404 5.69318 191.139 5.77841 190.912 5.94886C190.685 6.11577 190.507 6.36435 190.379 6.6946C190.255 7.02131 190.193 7.42614 190.193 7.90909C190.193 8.39205 190.255 8.80043 190.379 9.13423C190.507 9.46449 190.685 9.71484 190.912 9.8853C191.139 10.0522 191.404 10.1357 191.706 10.1357C191.947 10.1357 192.16 10.0842 192.345 9.98118C192.533 9.8782 192.687 9.72727 192.808 9.52841C192.929 9.32599 193.005 9.08097 193.037 8.79332H195.472C195.447 9.46804 195.278 10.0575 194.965 10.5618C194.657 11.0661 194.222 11.4585 193.66 11.739C193.103 12.016 192.441 12.1545 191.674 12.1545ZM198.005 12V3.81818H200.609V6.86506H201.185L203.171 3.81818H206.186L203.432 7.91442L206.213 12H203.161L201.366 9.28338H200.609V12H198.005ZM210.534 12.1385C210.012 12.1385 209.549 12.0515 209.144 11.8775C208.743 11.6999 208.425 11.4336 208.191 11.0785C207.96 10.7198 207.844 10.2706 207.844 9.73082C207.844 9.27628 207.924 8.89276 208.084 8.58026C208.244 8.26776 208.464 8.01385 208.745 7.81854C209.025 7.62322 209.348 7.47585 209.714 7.37642C210.08 7.27344 210.471 7.20419 210.886 7.16868C211.351 7.12607 211.726 7.08168 212.01 7.03551C212.294 6.9858 212.5 6.91655 212.628 6.82777C212.759 6.73544 212.825 6.60582 212.825 6.43892V6.41229C212.825 6.13885 212.731 5.92756 212.543 5.77841C212.354 5.62926 212.1 5.55469 211.781 5.55469C211.436 5.55469 211.159 5.62926 210.95 5.77841C210.74 5.92756 210.607 6.13352 210.55 6.39631L208.148 6.31108C208.219 5.81392 208.402 5.37003 208.697 4.9794C208.995 4.58523 209.403 4.27628 209.922 4.05256C210.444 3.82528 211.071 3.71165 211.802 3.71165C212.324 3.71165 212.805 3.77379 213.246 3.89808C213.686 4.01882 214.07 4.19638 214.396 4.43075C214.723 4.66158 214.975 4.94567 215.153 5.28303C215.334 5.62038 215.424 6.00568 215.424 6.43892V12H212.974V10.8601H212.91C212.765 11.1371 212.578 11.3714 212.351 11.5632C212.127 11.755 211.863 11.8988 211.557 11.9947C211.255 12.0906 210.914 12.1385 210.534 12.1385ZM211.339 10.4339C211.619 10.4339 211.871 10.3771 212.095 10.2635C212.322 10.1499 212.504 9.99361 212.638 9.79474C212.773 9.59233 212.841 9.35795 212.841 9.09162V8.31392C212.766 8.35298 212.676 8.38849 212.569 8.42045C212.466 8.45241 212.353 8.4826 212.228 8.51101C212.104 8.53942 211.976 8.56428 211.845 8.58558C211.713 8.60689 211.587 8.62642 211.467 8.64418C211.222 8.68324 211.012 8.74361 210.838 8.82528C210.668 8.90696 210.536 9.01349 210.444 9.14489C210.355 9.27273 210.311 9.42543 210.311 9.60298C210.311 9.87287 210.407 10.0788 210.598 10.2209C210.794 10.3629 211.04 10.4339 211.339 10.4339ZM222.968 12V5.80504H221.647C221.253 5.80504 220.959 5.8956 220.763 6.0767C220.568 6.25781 220.474 6.45668 220.481 6.6733C220.474 6.89702 220.57 7.0941 220.769 7.26456C220.967 7.43501 221.267 7.52024 221.669 7.52024H223.869V9.17152H221.669C220.919 9.17152 220.27 9.06321 219.719 8.84659C219.172 8.62642 218.75 8.3228 218.451 7.93572C218.157 7.5451 218.011 7.09588 218.015 6.58807C218.011 6.04474 218.157 5.56534 218.451 5.14986C218.746 4.73082 219.165 4.40412 219.709 4.16974C220.255 3.93537 220.902 3.81818 221.647 3.81818H225.392V12H222.968ZM217.855 12L220.108 7.67472H222.548L220.294 12H217.855Z" fill="white"/>
<path d="M120.659 20.7273V25.2955H110.386V44H104.761V20.7273H120.659ZM129.163 44.2955C128.049 44.2955 127.061 44.1098 126.197 43.7386C125.341 43.3598 124.663 42.7917 124.163 42.0341C123.671 41.2689 123.424 40.3106 123.424 39.1591C123.424 38.1894 123.595 37.3712 123.936 36.7045C124.277 36.0379 124.746 35.4962 125.345 35.0795C125.943 34.6629 126.633 34.3485 127.413 34.1364C128.193 33.9167 129.027 33.7689 129.913 33.6932C130.905 33.6023 131.705 33.5076 132.311 33.4091C132.917 33.303 133.356 33.1553 133.629 32.9659C133.909 32.7689 134.049 32.4924 134.049 32.1364V32.0795C134.049 31.4962 133.849 31.0455 133.447 30.7273C133.046 30.4091 132.504 30.25 131.822 30.25C131.087 30.25 130.496 30.4091 130.049 30.7273C129.602 31.0455 129.318 31.4848 129.197 32.0455L124.072 31.8636C124.224 30.803 124.614 29.8561 125.243 29.0227C125.879 28.1818 126.75 27.5227 127.856 27.0455C128.97 26.5606 130.307 26.3182 131.868 26.3182C132.981 26.3182 134.008 26.4508 134.947 26.7159C135.887 26.9735 136.705 27.3523 137.402 27.8523C138.099 28.3447 138.637 28.9508 139.015 29.6705C139.402 30.3902 139.595 31.2121 139.595 32.1364V44H134.368V41.5682H134.231C133.921 42.1591 133.523 42.6591 133.038 43.0682C132.561 43.4773 131.996 43.7841 131.345 43.9886C130.701 44.1932 129.974 44.2955 129.163 44.2955ZM130.879 40.6591C131.477 40.6591 132.015 40.5379 132.493 40.2955C132.977 40.053 133.364 39.7197 133.652 39.2955C133.94 38.8636 134.084 38.3636 134.084 37.7955V36.1364C133.924 36.2197 133.731 36.2955 133.504 36.3636C133.284 36.4318 133.042 36.4962 132.777 36.5568C132.512 36.6174 132.239 36.6705 131.959 36.7159C131.678 36.7614 131.409 36.803 131.152 36.8409C130.629 36.9242 130.182 37.053 129.811 37.2273C129.447 37.4015 129.167 37.6288 128.97 37.9091C128.78 38.1818 128.686 38.5076 128.686 38.8864C128.686 39.4621 128.89 39.9015 129.299 40.2045C129.716 40.5076 130.243 40.6591 130.879 40.6591ZM145.363 38.8864H150.659C150.674 39.4015 150.897 39.8106 151.329 40.1136C151.768 40.4167 152.333 40.5682 153.022 40.5682C153.719 40.5682 154.295 40.4015 154.749 40.0682C155.212 39.7273 155.443 39.2576 155.443 38.6591C155.443 38.2955 155.348 37.9773 155.159 37.7045C154.977 37.4242 154.719 37.2045 154.386 37.0455C154.06 36.8864 153.681 36.8068 153.249 36.8068H150.909V33.3864H153.249C153.893 33.3864 154.401 33.2348 154.772 32.9318C155.143 32.6288 155.329 32.2462 155.329 31.7841C155.329 31.2614 155.14 30.8371 154.761 30.5114C154.39 30.1856 153.893 30.0227 153.272 30.0227C152.659 30.0227 152.151 30.1629 151.749 30.4432C151.348 30.7235 151.143 31.0871 151.136 31.5341H145.84C145.848 30.4508 146.17 29.5227 146.806 28.75C147.45 27.9697 148.314 27.3712 149.397 26.9545C150.488 26.5303 151.7 26.3182 153.034 26.3182C154.526 26.3182 155.81 26.5152 156.886 26.9091C157.969 27.2955 158.799 27.8561 159.374 28.5909C159.95 29.3182 160.238 30.2045 160.238 31.25C160.238 32.1591 159.924 32.928 159.295 33.5568C158.674 34.1856 157.776 34.6326 156.602 34.8977V35.0795C157.337 35.1174 158.011 35.303 158.624 35.6364C159.238 35.9621 159.734 36.4242 160.113 37.0227C160.492 37.6136 160.681 38.3295 160.681 39.1705C160.681 40.2538 160.352 41.1818 159.693 41.9545C159.034 42.7197 158.128 43.3068 156.977 43.7159C155.833 44.125 154.518 44.3295 153.034 44.3295C151.587 44.3295 150.291 44.1288 149.147 43.7273C148.011 43.3182 147.105 42.7083 146.431 41.8977C145.757 41.0871 145.401 40.0833 145.363 38.8864ZM174.77 44.3295C172.945 44.3295 171.369 43.9697 170.043 43.25C168.725 42.5227 167.71 41.4886 166.998 40.1477C166.293 38.7992 165.941 37.197 165.941 35.3409C165.941 33.5379 166.297 31.9621 167.009 30.6136C167.721 29.2576 168.725 28.2045 170.02 27.4545C171.316 26.697 172.842 26.3182 174.6 26.3182C175.842 26.3182 176.979 26.5114 178.009 26.8977C179.039 27.2841 179.93 27.8561 180.68 28.6136C181.43 29.3712 182.013 30.3068 182.43 31.4205C182.846 32.5265 183.055 33.7955 183.055 35.2273V36.6136H167.884V33.3864H177.884C177.877 32.7955 177.736 32.2689 177.464 31.8068C177.191 31.3447 176.816 30.9848 176.339 30.7273C175.869 30.4621 175.327 30.3295 174.714 30.3295C174.092 30.3295 173.536 30.4697 173.043 30.75C172.551 31.0227 172.161 31.3977 171.873 31.875C171.585 32.3447 171.433 32.8788 171.418 33.4773V36.7614C171.418 37.4735 171.558 38.0985 171.839 38.6364C172.119 39.1667 172.517 39.5795 173.032 39.875C173.547 40.1705 174.161 40.3182 174.873 40.3182C175.365 40.3182 175.812 40.25 176.214 40.1136C176.615 39.9773 176.96 39.7765 177.248 39.5114C177.536 39.2462 177.752 38.9205 177.895 38.5341L182.998 38.6818C182.786 39.8258 182.32 40.822 181.6 41.6705C180.888 42.5114 179.952 43.1667 178.793 43.6364C177.634 44.0985 176.293 44.3295 174.77 44.3295ZM187.831 30.7955V26.5455H204.195V30.7955H198.615V44H193.343V30.7955H187.831ZM214.432 44.2955C213.318 44.2955 212.33 44.1098 211.466 43.7386C210.61 43.3598 209.932 42.7917 209.432 42.0341C208.939 41.2689 208.693 40.3106 208.693 39.1591C208.693 38.1894 208.864 37.3712 209.205 36.7045C209.545 36.0379 210.015 35.4962 210.614 35.0795C211.212 34.6629 211.902 34.3485 212.682 34.1364C213.462 33.9167 214.295 33.7689 215.182 33.6932C216.174 33.6023 216.973 33.5076 217.58 33.4091C218.186 33.303 218.625 33.1553 218.898 32.9659C219.178 32.7689 219.318 32.4924 219.318 32.1364V32.0795C219.318 31.4962 219.117 31.0455 218.716 30.7273C218.314 30.4091 217.773 30.25 217.091 30.25C216.356 30.25 215.765 30.4091 215.318 30.7273C214.871 31.0455 214.587 31.4848 214.466 32.0455L209.341 31.8636C209.492 30.803 209.883 29.8561 210.511 29.0227C211.148 28.1818 212.019 27.5227 213.125 27.0455C214.239 26.5606 215.576 26.3182 217.136 26.3182C218.25 26.3182 219.277 26.4508 220.216 26.7159C221.155 26.9735 221.973 27.3523 222.67 27.8523C223.367 28.3447 223.905 28.9508 224.284 29.6705C224.67 30.3902 224.864 31.2121 224.864 32.1364V44H219.636V41.5682H219.5C219.189 42.1591 218.792 42.6591 218.307 43.0682C217.83 43.4773 217.265 43.7841 216.614 43.9886C215.97 44.1932 215.242 44.2955 214.432 44.2955ZM216.148 40.6591C216.746 40.6591 217.284 40.5379 217.761 40.2955C218.246 40.053 218.633 39.7197 218.92 39.2955C219.208 38.8636 219.352 38.3636 219.352 37.7955V36.1364C219.193 36.2197 219 36.2955 218.773 36.3636C218.553 36.4318 218.311 36.4962 218.045 36.5568C217.78 36.6174 217.508 36.6705 217.227 36.7159C216.947 36.7614 216.678 36.803 216.42 36.8409C215.898 36.9242 215.451 37.053 215.08 37.2273C214.716 37.4015 214.436 37.6288 214.239 37.9091C214.049 38.1818 213.955 38.5076 213.955 38.8864C213.955 39.4621 214.159 39.9015 214.568 40.2045C214.985 40.5076 215.511 40.6591 216.148 40.6591Z" fill="white"/>
<path d="M30.2507 74L27.9638 70.9815H27.5661V74H25.8082V66.7273H27.5661V69.5504H27.8466L30.098 66.7273H32.2962L29.4943 70.1612L32.4418 74H30.2507ZM35.6213 74.0923C35.2733 74.0923 34.9643 74.0343 34.6944 73.9183C34.4269 73.8 34.215 73.6224 34.0588 73.3857C33.9049 73.1465 33.8279 72.8471 33.8279 72.4872C33.8279 72.1842 33.8812 71.9285 33.9877 71.7202C34.0943 71.5118 34.2411 71.3426 34.4281 71.2124C34.6151 71.0821 34.8306 70.9839 35.0744 70.9176C35.3182 70.849 35.5787 70.8028 35.8556 70.7791C36.1658 70.7507 36.4155 70.7211 36.6049 70.6903C36.7943 70.6572 36.9316 70.611 37.0169 70.5518C37.1045 70.4903 37.1483 70.4039 37.1483 70.2926V70.2749C37.1483 70.0926 37.0855 69.9517 36.96 69.8523C36.8346 69.7528 36.6653 69.7031 36.4522 69.7031C36.2226 69.7031 36.0379 69.7528 35.8983 69.8523C35.7586 69.9517 35.6698 70.089 35.6319 70.2642L34.0304 70.2074C34.0777 69.8759 34.1996 69.58 34.3961 69.3196C34.595 69.0568 34.8672 68.8509 35.2129 68.7017C35.5609 68.5502 35.9788 68.4744 36.4664 68.4744C36.8145 68.4744 37.1352 68.5159 37.4288 68.5987C37.7224 68.6792 37.978 68.7976 38.1958 68.9538C38.4136 69.1077 38.5817 69.2971 38.7001 69.522C38.8208 69.7469 38.8812 70.0038 38.8812 70.2926V74H37.2477V73.2401H37.2051C37.108 73.4247 36.9837 73.581 36.8322 73.7088C36.6831 73.8366 36.5067 73.9325 36.3031 73.9964C36.1019 74.0604 35.8746 74.0923 35.6213 74.0923ZM36.1575 72.956C36.3445 72.956 36.5126 72.9181 36.6618 72.8423C36.8133 72.7666 36.934 72.6624 37.024 72.5298C37.1139 72.3949 37.1589 72.2386 37.1589 72.0611V71.5426C37.1092 71.5687 37.0488 71.5923 36.9778 71.6136C36.9092 71.6349 36.8334 71.6551 36.7505 71.674C36.6677 71.6929 36.5824 71.7095 36.4949 71.7237C36.4073 71.7379 36.3232 71.7509 36.2427 71.7628C36.0794 71.7888 35.9397 71.8291 35.8237 71.8835C35.71 71.938 35.6225 72.009 35.5609 72.0966C35.5017 72.1818 35.4721 72.2836 35.4721 72.402C35.4721 72.5819 35.536 72.7192 35.6639 72.8139C35.7941 72.9086 35.9586 72.956 36.1575 72.956ZM40.6767 74L40.666 72.6612H40.84C40.9584 72.6612 41.0614 72.6304 41.149 72.5689C41.2366 72.5073 41.31 72.4091 41.3691 72.2741C41.4283 72.1368 41.4757 71.9605 41.5112 71.745C41.5467 71.5296 41.5692 71.268 41.5787 70.9602L41.6674 68.5455H45.9856V74H44.3414V69.8736H43.2122L43.127 71.4432C43.1056 71.9048 43.0453 72.299 42.9458 72.6257C42.8488 72.95 42.7162 73.2128 42.5481 73.4141C42.3824 73.6153 42.1859 73.7633 41.9586 73.858C41.7314 73.9527 41.4745 74 41.188 74H40.6767ZM49.6907 71.7521L51.4343 68.5455H53.1033V74H51.4592V70.7827L49.7191 74H48.0465V68.5455H49.6907V71.7521ZM59.0545 70.5945V71.919H56.2562V70.5945H59.0545ZM56.8528 68.5455V74H55.2086V68.5455H56.8528ZM60.1021 68.5455V74H58.4686V68.5455H60.1021ZM63.8001 71.7521L65.5437 68.5455H67.2127V74H65.5685V70.7827L63.8285 74H62.1559V68.5455H63.8001V71.7521ZM73.1639 70.5945V71.919H70.3656V70.5945H73.1639ZM70.9622 68.5455V74H69.318V68.5455H70.9622ZM74.2115 68.5455V74H72.5779V68.5455H74.2115ZM80.1218 68.5455V69.8736H77.945V74H76.2653V68.5455H80.1218ZM81.943 76.0455V68.5455H83.6618V69.4794H83.715C83.786 69.3137 83.8867 69.1539 84.0169 69C84.1494 68.8461 84.3175 68.7206 84.5211 68.6236C84.7271 68.5241 84.9733 68.4744 85.2598 68.4744C85.6386 68.4744 85.9925 68.5739 86.3216 68.7727C86.653 68.9716 86.9205 69.2782 87.1241 69.6925C87.3277 70.1068 87.4295 70.6347 87.4295 71.2763C87.4295 71.8942 87.3313 72.4115 87.1348 72.8281C86.9406 73.2448 86.6779 73.5573 86.3464 73.7656C86.0173 73.974 85.6516 74.0781 85.2491 74.0781C84.9745 74.0781 84.7366 74.0331 84.5353 73.9432C84.3341 73.8532 84.1648 73.7348 84.0275 73.5881C83.8926 73.4413 83.7884 73.2839 83.715 73.1158H83.6795V76.0455H81.943ZM83.644 71.2727C83.644 71.5663 83.6831 71.822 83.7612 72.0398C83.8417 72.2576 83.9565 72.4268 84.1056 72.5476C84.2572 72.666 84.4383 72.7251 84.649 72.7251C84.862 72.7251 85.0431 72.666 85.1923 72.5476C85.3414 72.4268 85.4539 72.2576 85.5297 72.0398C85.6078 71.822 85.6468 71.5663 85.6468 71.2727C85.6468 70.9792 85.6078 70.7247 85.5297 70.5092C85.4539 70.2938 85.3414 70.1269 85.1923 70.0085C85.0455 69.8902 84.8644 69.831 84.649 69.831C84.4359 69.831 84.2548 69.889 84.1056 70.005C83.9565 70.121 83.8417 70.2867 83.7612 70.5021C83.6831 70.7176 83.644 70.9744 83.644 71.2727ZM90.8771 74.0923C90.5291 74.0923 90.2202 74.0343 89.9503 73.9183C89.6828 73.8 89.4709 73.6224 89.3146 73.3857C89.1607 73.1465 89.0838 72.8471 89.0838 72.4872C89.0838 72.1842 89.1371 71.9285 89.2436 71.7202C89.3501 71.5118 89.4969 71.3426 89.6839 71.2124C89.871 71.0821 90.0864 70.9839 90.3303 70.9176C90.5741 70.849 90.8345 70.8028 91.1115 70.7791C91.4216 70.7507 91.6714 70.7211 91.8608 70.6903C92.0502 70.6572 92.1875 70.611 92.2727 70.5518C92.3603 70.4903 92.4041 70.4039 92.4041 70.2926V70.2749C92.4041 70.0926 92.3414 69.9517 92.2159 69.8523C92.0904 69.7528 91.9212 69.7031 91.7081 69.7031C91.4785 69.7031 91.2938 69.7528 91.1541 69.8523C91.0144 69.9517 90.9257 70.089 90.8878 70.2642L89.2862 70.2074C89.3336 69.8759 89.4555 69.58 89.652 69.3196C89.8509 69.0568 90.1231 68.8509 90.4688 68.7017C90.8168 68.5502 91.2346 68.4744 91.7223 68.4744C92.0703 68.4744 92.3911 68.5159 92.6847 68.5987C92.9782 68.6792 93.2339 68.7976 93.4517 68.9538C93.6695 69.1077 93.8376 69.2971 93.956 69.522C94.0767 69.7469 94.1371 70.0038 94.1371 70.2926V74H92.5036V73.2401H92.4609C92.3639 73.4247 92.2396 73.581 92.0881 73.7088C91.9389 73.8366 91.7625 73.9325 91.5589 73.9964C91.3577 74.0604 91.1304 74.0923 90.8771 74.0923ZM91.4134 72.956C91.6004 72.956 91.7685 72.9181 91.9176 72.8423C92.0691 72.7666 92.1899 72.6624 92.2798 72.5298C92.3698 72.3949 92.4148 72.2386 92.4148 72.0611V71.5426C92.3651 71.5687 92.3047 71.5923 92.2337 71.6136C92.165 71.6349 92.0893 71.6551 92.0064 71.674C91.9235 71.6929 91.8383 71.7095 91.7507 71.7237C91.6631 71.7379 91.5791 71.7509 91.4986 71.7628C91.3352 71.7888 91.1955 71.8291 91.0795 71.8835C90.9659 71.938 90.8783 72.009 90.8168 72.0966C90.7576 72.1818 90.728 72.2836 90.728 72.402C90.728 72.5819 90.7919 72.7192 90.9197 72.8139C91.05 72.9086 91.2145 72.956 91.4134 72.956ZM95.8224 75.6087V72.6612H96.2308C96.3539 72.5997 96.4522 72.4813 96.5256 72.3061C96.599 72.1286 96.657 71.9214 96.6996 71.6847C96.7446 71.4455 96.7777 71.197 96.799 70.9389C96.8227 70.6785 96.844 70.4335 96.8629 70.2038L96.9908 68.5455H101.408V72.6612H102.261V75.6087H100.613V74H97.5128V75.6087H95.8224ZM97.9212 72.6612H99.7891V69.8381H98.4396L98.4112 70.2038C98.3781 70.791 98.326 71.2834 98.255 71.6811C98.1839 72.0788 98.0727 72.4055 97.9212 72.6612ZM106.61 74.103C106.035 74.103 105.541 73.9846 105.129 73.7479C104.72 73.5111 104.405 73.1821 104.185 72.7607C103.965 72.3369 103.855 71.8468 103.855 71.2905C103.855 70.7318 103.965 70.2417 104.185 69.8203C104.407 69.3965 104.723 69.0663 105.133 68.8295C105.545 68.5928 106.036 68.4744 106.607 68.4744C107.111 68.4744 107.55 68.5656 107.924 68.7479C108.301 68.9302 108.594 69.1882 108.805 69.522C109.018 69.8535 109.13 70.2429 109.142 70.6903H107.519C107.486 70.411 107.392 70.192 107.235 70.0334C107.081 69.8748 106.88 69.7955 106.632 69.7955C106.43 69.7955 106.254 69.8523 106.102 69.9659C105.951 70.0772 105.833 70.2429 105.747 70.4631C105.664 70.6809 105.623 70.9508 105.623 71.2727C105.623 71.5947 105.664 71.867 105.747 72.0895C105.833 72.3097 105.951 72.4766 106.102 72.5902C106.254 72.7015 106.43 72.7571 106.632 72.7571C106.793 72.7571 106.935 72.7228 107.058 72.6541C107.183 72.5855 107.286 72.4848 107.367 72.3523C107.447 72.2173 107.498 72.054 107.519 71.8622H109.142C109.126 72.312 109.013 72.705 108.805 73.0412C108.599 73.3774 108.309 73.639 107.935 73.826C107.563 74.0107 107.122 74.103 106.61 74.103ZM111.031 74V68.5455H112.767V70.5767H113.151L114.475 68.5455H116.485L114.65 71.2763L116.503 74H114.468L113.272 72.1889H112.767V74H111.031ZM119.691 71.7521L121.434 68.5455H123.103V74H121.459V70.7827L119.719 74H118.047V68.5455H119.691V71.7521ZM126.853 71.7521L128.596 68.5455H130.265V74H128.621V70.7827L126.881 74H125.209V68.5455H126.853V71.7521ZM128.44 66.6136H129.584C129.581 67.0587 129.413 67.4162 129.079 67.6861C128.748 67.956 128.298 68.0909 127.73 68.0909C127.162 68.0909 126.711 67.956 126.377 67.6861C126.046 67.4162 125.881 67.0587 125.883 66.6136H127.016C127.014 66.7699 127.067 66.9119 127.176 67.0398C127.285 67.1676 127.47 67.2315 127.73 67.2315C127.983 67.2315 128.164 67.1688 128.273 67.0433C128.382 66.9179 128.438 66.7746 128.44 66.6136ZM140.217 66.5568L140.686 67.7038C140.537 67.8198 140.374 67.9074 140.196 67.9666C140.021 68.0258 139.807 68.0661 139.553 68.0874C139.3 68.1087 138.98 68.1205 138.594 68.1229C138.159 68.1252 137.806 68.1856 137.536 68.304C137.266 68.42 137.062 68.6106 136.922 68.8757C136.785 69.1385 136.693 69.4889 136.648 69.9268H136.695C136.851 69.5978 137.073 69.3385 137.362 69.1491C137.651 68.9598 138.024 68.8651 138.481 68.8651C138.957 68.8651 139.371 68.968 139.724 69.174C140.076 69.3776 140.349 69.6688 140.54 70.0476C140.732 70.424 140.828 70.8714 140.828 71.3899C140.828 71.9392 140.718 72.4174 140.498 72.8246C140.278 73.2318 139.963 73.5466 139.553 73.7692C139.144 73.9917 138.654 74.103 138.083 74.103C137.513 74.103 137.021 73.987 136.609 73.755C136.2 73.523 135.884 73.1821 135.661 72.7322C135.441 72.2801 135.331 71.7249 135.331 71.0668V70.669C135.331 69.3196 135.603 68.3265 136.148 67.6896C136.692 67.0528 137.488 66.732 138.534 66.7273C138.797 66.7249 139.035 66.7249 139.248 66.7273C139.463 66.7273 139.652 66.7166 139.812 66.6953C139.973 66.6716 140.108 66.6255 140.217 66.5568ZM138.094 72.7926C138.293 72.7926 138.464 72.7393 138.609 72.6328C138.753 72.5263 138.864 72.3736 138.942 72.1747C139.021 71.9759 139.06 71.7367 139.06 71.4574C139.06 71.178 139.019 70.9401 138.939 70.7436C138.861 70.5471 138.75 70.398 138.605 70.2962C138.461 70.192 138.289 70.1399 138.09 70.1399C137.939 70.1399 137.801 70.1695 137.678 70.2287C137.555 70.2855 137.451 70.3707 137.366 70.4844C137.281 70.5956 137.215 70.733 137.17 70.8963C137.125 71.0597 137.103 71.2467 137.103 71.4574C137.103 71.8741 137.191 72.2008 137.366 72.4375C137.541 72.6742 137.784 72.7926 138.094 72.7926ZM144.384 71.7521L146.128 68.5455H147.797V74H146.153V70.7827L144.412 74H142.74V68.5455H144.384V71.7521ZM149.643 72.402H151.298C151.302 72.563 151.372 72.6908 151.507 72.7855C151.644 72.8802 151.821 72.9276 152.036 72.9276C152.254 72.9276 152.434 72.8755 152.576 72.7713C152.72 72.6648 152.793 72.518 152.793 72.331C152.793 72.2173 152.763 72.1179 152.704 72.0327C152.647 71.9451 152.567 71.8764 152.462 71.8267C152.361 71.777 152.242 71.7521 152.107 71.7521H151.376V70.6832H152.107C152.308 70.6832 152.467 70.6359 152.583 70.5412C152.699 70.4465 152.757 70.3269 152.757 70.1825C152.757 70.0192 152.698 69.8866 152.58 69.7848C152.464 69.683 152.308 69.6321 152.114 69.6321C151.923 69.6321 151.764 69.6759 151.638 69.7635C151.513 69.8511 151.449 69.9647 151.447 70.1044H149.792C149.794 69.7659 149.895 69.4759 150.094 69.2344C150.295 68.9905 150.565 68.8035 150.903 68.6733C151.244 68.5407 151.623 68.4744 152.04 68.4744C152.506 68.4744 152.907 68.536 153.244 68.6591C153.582 68.7798 153.841 68.955 154.021 69.1847C154.201 69.4119 154.291 69.6889 154.291 70.0156C154.291 70.2997 154.193 70.54 153.996 70.7365C153.802 70.933 153.522 71.0727 153.155 71.1555V71.2124C153.384 71.2242 153.595 71.2822 153.787 71.3864C153.979 71.4882 154.134 71.6326 154.252 71.8196C154.371 72.0043 154.43 72.228 154.43 72.4908C154.43 72.8293 154.327 73.1193 154.121 73.3608C153.915 73.5999 153.632 73.7834 153.272 73.9112C152.915 74.0391 152.504 74.103 152.04 74.103C151.588 74.103 151.183 74.0402 150.825 73.9148C150.47 73.7869 150.187 73.5964 149.977 73.343C149.766 73.0897 149.655 72.776 149.643 72.402ZM160.129 70.5945V71.919H157.33V70.5945H160.129ZM157.927 68.5455V74H156.283V68.5455H157.927ZM161.176 68.5455V74H159.543V68.5455H161.176ZM165.78 74.103C165.209 74.103 164.717 73.9905 164.303 73.7656C163.891 73.5384 163.573 73.2152 163.351 72.7962C163.131 72.3748 163.021 71.8741 163.021 71.294C163.021 70.7306 163.132 70.2382 163.354 69.8168C163.577 69.393 163.891 69.0639 164.295 68.8295C164.7 68.5928 165.177 68.4744 165.727 68.4744C166.115 68.4744 166.47 68.5348 166.792 68.6555C167.114 68.7763 167.392 68.955 167.626 69.1918C167.861 69.4285 168.043 69.7209 168.173 70.0689C168.304 70.4145 168.369 70.8111 168.369 71.2585V71.6918H163.628V70.6832H166.753C166.75 70.4986 166.707 70.334 166.621 70.1896C166.536 70.0452 166.419 69.9328 166.27 69.8523C166.123 69.7694 165.954 69.728 165.762 69.728C165.568 69.728 165.394 69.7718 165.24 69.8594C165.086 69.9446 164.964 70.0618 164.874 70.2109C164.784 70.3577 164.737 70.5246 164.732 70.7116V71.7379C164.732 71.9605 164.776 72.1558 164.864 72.3239C164.951 72.4896 165.076 72.6186 165.237 72.7109C165.397 72.8033 165.589 72.8494 165.812 72.8494C165.966 72.8494 166.105 72.8281 166.231 72.7855C166.356 72.7429 166.464 72.6802 166.554 72.5973C166.644 72.5144 166.711 72.4126 166.756 72.2919L168.351 72.3381C168.285 72.6955 168.139 73.0069 167.914 73.272C167.692 73.5348 167.399 73.7396 167.037 73.8864C166.675 74.0308 166.256 74.103 165.78 74.103ZM172.802 74.103C172.226 74.103 171.733 73.9846 171.321 73.7479C170.911 73.5111 170.596 73.1821 170.376 72.7607C170.156 72.3369 170.046 71.8468 170.046 71.2905C170.046 70.7318 170.156 70.2417 170.376 69.8203C170.599 69.3965 170.915 69.0663 171.324 68.8295C171.736 68.5928 172.228 68.4744 172.798 68.4744C173.302 68.4744 173.742 68.5656 174.116 68.7479C174.492 68.9302 174.786 69.1882 174.996 69.522C175.209 69.8535 175.322 70.2429 175.334 70.6903H173.711C173.678 70.411 173.583 70.192 173.427 70.0334C173.273 69.8748 173.072 69.7955 172.823 69.7955C172.622 69.7955 172.445 69.8523 172.294 69.9659C172.142 70.0772 172.024 70.2429 171.939 70.4631C171.856 70.6809 171.814 70.9508 171.814 71.2727C171.814 71.5947 171.856 71.867 171.939 72.0895C172.024 72.3097 172.142 72.4766 172.294 72.5902C172.445 72.7015 172.622 72.7571 172.823 72.7571C172.984 72.7571 173.126 72.7228 173.249 72.6541C173.375 72.5855 173.478 72.4848 173.558 72.3523C173.639 72.2173 173.689 72.054 173.711 71.8622H175.334C175.317 72.312 175.205 72.705 174.996 73.0412C174.79 73.3774 174.5 73.639 174.126 73.826C173.755 74.0107 173.313 74.103 172.802 74.103ZM180.371 74V68.5455H182.107V70.5767H182.491L183.815 68.5455H185.825L183.989 71.2763L185.843 74H183.808L182.612 72.1889H182.107V74H180.371ZM189.708 74.103C189.135 74.103 188.643 73.9858 188.231 73.7514C187.821 73.5147 187.505 73.1856 187.282 72.7642C187.062 72.3404 186.952 71.8492 186.952 71.2905C186.952 70.7294 187.062 70.2382 187.282 69.8168C187.505 69.393 187.821 69.0639 188.231 68.8295C188.643 68.5928 189.135 68.4744 189.708 68.4744C190.281 68.4744 190.772 68.5928 191.182 68.8295C191.594 69.0639 191.91 69.393 192.13 69.8168C192.352 70.2382 192.464 70.7294 192.464 71.2905C192.464 71.8492 192.352 72.3404 192.13 72.7642C191.91 73.1856 191.594 73.5147 191.182 73.7514C190.772 73.9858 190.281 74.103 189.708 74.103ZM189.719 72.7926C189.927 72.7926 190.103 72.7287 190.248 72.6009C190.392 72.473 190.502 72.2955 190.578 72.0682C190.656 71.8409 190.695 71.5781 190.695 71.2798C190.695 70.9768 190.656 70.7116 190.578 70.4844C190.502 70.2571 190.392 70.0795 190.248 69.9517C190.103 69.8239 189.927 69.7599 189.719 69.7599C189.503 69.7599 189.321 69.8239 189.172 69.9517C189.025 70.0795 188.912 70.2571 188.834 70.4844C188.759 70.7116 188.721 70.9768 188.721 71.2798C188.721 71.5781 188.759 71.8409 188.834 72.0682C188.912 72.2955 189.025 72.473 189.172 72.6009C189.321 72.7287 189.503 72.7926 189.719 72.7926ZM194.087 74L194.076 72.6612H194.25C194.369 72.6612 194.472 72.6304 194.559 72.5689C194.647 72.5073 194.72 72.4091 194.779 72.2741C194.838 72.1368 194.886 71.9605 194.921 71.745C194.957 71.5296 194.979 71.268 194.989 70.9602L195.078 68.5455H199.396V74H197.752V69.8736H196.622L196.537 71.4432C196.516 71.9048 196.455 72.299 196.356 72.6257C196.259 72.95 196.126 73.2128 195.958 73.4141C195.793 73.6153 195.596 73.7633 195.369 73.858C195.142 73.9527 194.885 74 194.598 74H194.087ZM204.006 74.103C203.436 74.103 202.943 73.9905 202.529 73.7656C202.117 73.5384 201.8 73.2152 201.577 72.7962C201.357 72.3748 201.247 71.8741 201.247 71.294C201.247 70.7306 201.358 70.2382 201.581 69.8168C201.804 69.393 202.117 69.0639 202.522 68.8295C202.927 68.5928 203.404 68.4744 203.953 68.4744C204.341 68.4744 204.696 68.5348 205.018 68.6555C205.34 68.7763 205.619 68.955 205.853 69.1918C206.087 69.4285 206.27 69.7209 206.4 70.0689C206.53 70.4145 206.595 70.8111 206.595 71.2585V71.6918H201.854V70.6832H204.979C204.977 70.4986 204.933 70.334 204.848 70.1896C204.763 70.0452 204.646 69.9328 204.496 69.8523C204.35 69.7694 204.18 69.728 203.989 69.728C203.795 69.728 203.621 69.7718 203.467 69.8594C203.313 69.9446 203.191 70.0618 203.101 70.2109C203.011 70.3577 202.964 70.5246 202.959 70.7116V71.7379C202.959 71.9605 203.003 72.1558 203.09 72.3239C203.178 72.4896 203.302 72.6186 203.463 72.7109C203.624 72.8033 203.816 72.8494 204.038 72.8494C204.192 72.8494 204.332 72.8281 204.457 72.7855C204.583 72.7429 204.691 72.6802 204.781 72.5973C204.871 72.5144 204.938 72.4126 204.983 72.2919L206.577 72.3381C206.511 72.6955 206.366 73.0069 206.141 73.272C205.918 73.5348 205.626 73.7396 205.263 73.8864C204.901 74.0308 204.482 74.103 204.006 74.103ZM208.106 75.6087V72.6612H208.514C208.637 72.5997 208.735 72.4813 208.809 72.3061C208.882 72.1286 208.94 71.9214 208.983 71.6847C209.028 71.4455 209.061 71.197 209.082 70.9389C209.106 70.6785 209.127 70.4335 209.146 70.2038L209.274 68.5455H213.692V72.6612H214.544V75.6087H212.896V74H209.796V75.6087H208.106ZM210.204 72.6612H212.072V69.8381H210.723L210.694 70.2038C210.661 70.791 210.609 71.2834 210.538 71.6811C210.467 72.0788 210.356 72.4055 210.204 72.6612ZM215.985 74L217.793 71.1378L215.989 68.5455H217.963L219.245 70.6122H219.405V68.5455H221.141V70.6122H221.298L222.58 68.5455H224.554L222.754 71.1378L224.558 74H222.537L221.283 71.9403H221.141V74H219.405V71.9403H219.263L218.006 74H215.985Z" fill="white" fill-opacity="0.8"/>
<defs>
<clipPath id="clip0_13_19">
<rect width="57" height="55" fill="white" transform="translate(25)"/>
</clipPath>
</defs>
</svg>
